<?xml version="1.0" encoding="UTF-8"?>
<svg width="128px" height="128px" viewBox="0 0 128 128" version="1.1" xmlns="http://www.w3.org/2000/svg" xmlns:xlink="http://www.w3.org/1999/xlink">
    <!-- Generator: Sketch 52.5 (67469) - http://www.bohemiancoding.com/sketch -->
    <title>credit</title>
    <desc>Created with Sketch.</desc>
    <g id="credit" stroke="none" stroke-width="1" fill="none" fill-rule="evenodd">
        <g id="Group" transform="translate(23.000000, 38.000000)" stroke-width="2">
            <rect id="Rectangle-Copy-13" stroke="#01C58D" x="3" y="16" width="66" height="9"></rect>
            <path d="M3.6,7 C2.16405965,7 1,8.16405965 1,9.6 L1,48.7821874 C1,50.2181277 2.16405965,51.3821874 3.6,51.3821874 L68.4,51.3821874 C69.8359403,51.3821874 71,50.2181277 71,48.7821874 L71,9.6 C71,8.16405965 69.8359403,7 68.4,7 L3.6,7 Z" id="Rectangle-3-Copy" stroke="#04004E"></path>
            <path d="M14.6,1 C13.1640597,1 12,2.16405965 12,3.6 L12,42.7821874 C12,44.2181277 13.1640597,45.3821874 14.6,45.3821874 L79.4,45.3821874 C80.8359403,45.3821874 82,44.2181277 82,42.7821874 L82,3.6 C82,2.16405965 80.8359403,1 79.4,1 L14.6,1 Z" id="Rectangle-3" stroke="#04004E" fill="#FFFFFF"></path>
            <rect id="Rectangle" stroke="#01C58D" x="14" y="11" width="66" height="9"></rect>
        </g>
    </g>
</svg>