<?xml version="1.0" encoding="UTF-8"?>
<svg width="64px" height="64px" viewBox="0 0 64 64" version="1.1" xmlns="http://www.w3.org/2000/svg" xmlns:xlink="http://www.w3.org/1999/xlink">
    <!-- Generator: Sketch 52.5 (67469) - http://www.bohemiancoding.com/sketch -->
    <title>Group 21</title>
    <desc>Created with Sketch.</desc>
    <g id="Page-1" stroke="none" stroke-width="1" fill="none" fill-rule="evenodd">
        <g id="Ladora" transform="translate(-1024.000000, -2171.000000)" stroke="#01C58D" stroke-width="1.5">
            <g id="Group-21" transform="translate(1025.000000, 2172.000000)">
                <g id="Group-5" stroke-linecap="round" stroke-linejoin="round">
                    <polyline id="Stroke-1" points="30.0937516 40.441529 8.55181613 61.9854968 0.0163322581 53.4479806 21.5582677 31.9060452"></polyline>
                    <polyline id="Stroke-3" points="31.1098806 22.5580645 53.2614935 0.203225806 61.7969774 8.73870968 39.4421387 30.8903226"></polyline>
                </g>
                <path d="M7,47 L11,51" id="Stroke-6" stroke-linecap="round" stroke-linejoin="round"></path>
                <path d="M14,41 L18,45" id="Stroke-7" stroke-linecap="round" stroke-linejoin="round"></path>
                <path d="M20,34 L24,38" id="Stroke-8" stroke-linecap="round" stroke-linejoin="round"></path>
                <path d="M33,21 L37,25" id="Stroke-9" stroke-linecap="round" stroke-linejoin="round"></path>
                <path d="M40,14 L44,18" id="Stroke-10" stroke-linecap="round" stroke-linejoin="round"></path>
                <path d="M46,8 L50,12" id="Stroke-11" stroke-linecap="round" stroke-linejoin="round"></path>
                <g id="Group-20">
                    <polyline id="Stroke-12" stroke-linecap="round" stroke-linejoin="round" points="52.4475742 43.6943613 56.107671 47.5536194 60.9830581 61.1717806 47.366929 56.4975871 44.9302516 54.0588774"></polyline>
                    <path d="M59.7649226,57.7157226 C58.5435355,57.7157226 57.7326645,58.7318516 57.7326645,59.7479806" id="Stroke-14"></path>
                    <polygon id="Stroke-16" stroke-linecap="round" stroke-linejoin="round" points="47.366929 56.4971806 47.5721871 52.6358903 51.4314452 52.2274065 51.8378968 48.1628903 56.107671 47.5552452 14.8508 6.09718065 5.91089677 15.0391161"></polygon>
                    <path d="M11.1931419,2.4389129 L17.2899161,8.5356871 L8.34798065,17.4776226 L2.25120645,11.3808484 C0.218948387,9.34859032 0.218948387,6.30020323 2.25120645,4.26794516 L4.08023871,2.4389129 C6.11249677,0.406654839 9.16088387,0.406654839 11.1931419,2.4389129 Z" id="Stroke-18"></path>
                </g>
            </g>
        </g>
    </g>
</svg>