<?xml version="1.0" encoding="UTF-8"?>
<svg width="128px" height="128px" viewBox="0 0 128 128" version="1.1" xmlns="http://www.w3.org/2000/svg" xmlns:xlink="http://www.w3.org/1999/xlink">
    <!-- Generator: Sketch 52.5 (67469) - http://www.bohemiancoding.com/sketch -->
    <title>mortgage</title>
    <desc>Created with Sketch.</desc>
    <g id="mortgage" stroke="none" stroke-width="1" fill="none" fill-rule="evenodd">
        <path d="M56,106.013092 L56,85.17 L72.881913,85.17 L72.881913,106.0135 L96.3646635,106.332683 C96.3823312,106.332883 96.3823312,106.332883 96.4,106.332923 C97.8359403,106.332923 99,105.168863 99,103.732923 L99,58.8702171 C99,58.0234652 98.5876638,57.229755 97.8948583,56.7429187 L63.0162705,32.2336408 L30.0495576,56.7231989 C29.3892469,57.2137154 29,57.9877657 29,58.8103329 L29,103.734431 C29.0000376,103.751562 29.0000376,103.751562 29.0002258,103.768693 C29.0191482,105.204509 30.1984464,106.353127 31.6342621,106.334205 L56,106.013092 Z" id="Rectangle-3" stroke="#04004E" stroke-width="2" fill="#FFFFFF"></path>
        <polygon id="Path-8" stroke="#04004E" stroke-width="2" fill="#FFFFFF" fill-rule="nonzero" points="63.5845283 32.2218299 17.4230168 67.0743729 12 59.8916931 63.5112869 21 116.397723 59.8566062 111.068923 67.1094598"></polygon>
        <rect id="Rectangle" stroke="#01C58D" stroke-width="2" x="42" y="63" width="13" height="13"></rect>
        <rect id="Rectangle-Copy" stroke="#01C58D" stroke-width="2" x="74" y="63" width="13" height="13"></rect>
    </g>
</svg>