<?xml version="1.0" encoding="UTF-8"?>
<svg width="128px" height="128px" viewBox="0 0 128 128" version="1.1" xmlns="http://www.w3.org/2000/svg" xmlns:xlink="http://www.w3.org/1999/xlink">
    <!-- Generator: Sketch 52.5 (67469) - http://www.bohemiancoding.com/sketch -->
    <title>questions</title>
    <desc>Created with Sketch.</desc>
    <g id="questions" stroke="none" stroke-width="1" fill="none" fill-rule="evenodd">
        <g id="Group-4-Copy" transform="translate(28.000000, 37.000000)">
            <path d="M10,61.7295025 L23.0115278,49.8235294 L68.4,49.8235294 C69.8359403,49.8235294 71,48.6594698 71,47.2235294 L71,3.6 C71,2.16405965 69.8359403,1 68.4,1 L3.6,1 C2.16405965,1 1,2.16405965 1,3.6 L1,47.2235294 C1,48.6594698 2.16405965,49.8235294 3.6,49.8235294 L10,49.8235294 L10,61.7295025 Z" id="Rectangle-3" stroke="#04004E" stroke-width="2"></path>
            <path d="M36.635,15.9 C38.9950118,15.9 40.869993,16.3499955 42.26,17.25 C43.6500069,18.1500045 44.345,19.5099909 44.345,21.33 C44.345,24.6900168 42.445019,26.5799979 38.645,27 L38.345,29.58 L33.965,29.58 L33.695,25.02 C35.5350092,24.8799993 36.854996,24.5650024 37.655,24.075 C38.455004,23.5849975 38.855,22.9300041 38.855,22.11 C38.855,21.4499967 38.6400021,20.9400018 38.21,20.58 C37.7799978,20.2199982 37.1350043,20.04 36.275,20.04 C35.3949956,20.04 34.6950026,20.2949974 34.175,20.805 C33.6549974,21.3150025 33.3550004,22.069995 33.275,23.07 L28.355,21.18 C28.5950012,19.579992 29.3899932,18.3000048 30.74,17.34 C32.0900067,16.3799952 34.0549871,15.9 36.635,15.9 Z M36.185,31.17 C37.0850045,31.17 37.7899974,31.3899978 38.3,31.83 C38.8100025,32.2700022 39.065,32.889996 39.065,33.69 C39.065,34.490004 38.8100025,35.1149977 38.3,35.565 C37.7899974,36.0150022 37.0850045,36.24 36.185,36.24 C35.2649954,36.24 34.5500025,36.0150022 34.04,35.565 C33.5299974,35.1149977 33.275,34.490004 33.275,33.69 C33.275,32.889996 33.5299974,32.2700022 34.04,31.83 C34.5500025,31.3899978 35.2649954,31.17 36.185,31.17 Z" id="?" fill="#01C58D"></path>
        </g>
    </g>
</svg>