<?xml version="1.0" encoding="UTF-8"?>
<svg width="128px" height="128px" viewBox="0 0 128 128" version="1.1" xmlns="http://www.w3.org/2000/svg" xmlns:xlink="http://www.w3.org/1999/xlink">
    <!-- Generator: Sketch 52.5 (67469) - http://www.bohemiancoding.com/sketch -->
    <title>auto</title>
    <desc>Created with Sketch.</desc>
    <g id="auto" stroke="none" stroke-width="1" fill="none" fill-rule="evenodd">
        <g id="Group" transform="translate(32.000000, 35.000000)" stroke-width="2">
            <path d="M12.792475,0 L51.3867112,-1.77635684e-15 C53.4571745,1.52118684e-15 55.3134577,1.27609345 56.0550136,3.20920316 L64.2885103,24.6725267 C64.5077773,25.2441184 64.6202079,25.8511184 64.6202079,26.4633235 L64.6202079,55.5239428 C64.6202079,57.1807971 63.2770622,58.5239428 61.6202079,58.5239428 L57.8239384,58.5239428 C56.1670842,58.5239428 54.8239384,57.1807971 54.8239384,55.5239428 L54.8239384,51.5332489 L9.94336182,51.5332489 L9.94336182,55.5239428 C9.94336182,57.1807971 8.60021607,58.5239428 6.94336182,58.5239428 L3,58.5239428 C1.34314575,58.5239428 3.8818616e-15,57.1807971 0,55.5239428 L9.76996262e-15,26.4184986 C1.02164003e-14,25.8354639 0.101972975,25.2569217 0.30130984,24.7090218 L8.09378481,3.29052325 C8.81252927,1.31497282 10.6902397,3.05070961e-15 12.792475,2.66453526e-15 Z" id="Path-6" stroke="#04004E"></path>
            <path d="M15.4229496,6.33680076 L49.4100801,6.33680076 C50.6529556,6.33680076 51.7671315,7.10318303 52.2116466,8.26384911 L56.0413455,18.263513 C56.6339203,19.8107755 55.8599931,21.5454563 54.3127306,22.1380312 C53.9702171,22.2692079 53.6065526,22.3364647 53.239779,22.3364647 L11.0758984,22.3364647 C9.41904415,22.3364647 8.0758984,20.9933189 8.0758984,19.3364647 C8.0758984,18.9249475 8.16056229,18.5178306 8.32462497,18.1404319 L12.6716762,8.14076792 C13.1478716,7.04536002 14.2285123,6.33680076 15.4229496,6.33680076 Z" id="Path-7" stroke="#04004E"></path>
            <circle id="Oval" stroke="#01C58D" cx="12.1425927" cy="34.8364647" r="5.5"></circle>
            <circle id="Oval" stroke="#01C58D" cx="52.1425927" cy="34.8364647" r="5.5"></circle>
        </g>
    </g>
</svg>