<?xml version="1.0" encoding="UTF-8"?>
<svg width="68px" height="63px" viewBox="0 0 68 63" version="1.1" xmlns="http://www.w3.org/2000/svg" xmlns:xlink="http://www.w3.org/1999/xlink">
    <!-- Generator: Sketch 52.5 (67469) - http://www.bohemiancoding.com/sketch -->
    <title>Group</title>
    <desc>Created with Sketch.</desc>
    <g id="Page-1" stroke="none" stroke-width="1" fill="none" fill-rule="evenodd">
        <g id="Ladora" transform="translate(-312.000000, -2169.000000)" fill-rule="nonzero" stroke="#01C58D" stroke-width="1.5">
            <g id="Group" transform="translate(313.000000, 2166.000000)">
                <g id="gear-a" transform="translate(0.000000, 23.000000)">
                    <path d="M26.2132812,14.5 C26.2132812,12.6950521 27.3309896,11.2677083 29,10.2859375 C28.6979167,9.28151042 28.2976562,8.30729167 27.8067708,7.40104167 C25.9263021,7.89192708 24.4083333,7.159375 23.1244792,5.87552083 C21.8481771,4.59921875 21.4554687,3.07369792 21.9463542,1.19322917 C21.0401042,0.70234375 20.0734375,0.302083333 19.0614583,0 C18.0796875,1.6765625 16.3125,2.78671875 14.5,2.78671875 C12.6950521,2.78671875 10.9203125,1.6765625 9.93854167,0 C8.9265625,0.302083333 7.95989583,0.70234375 7.05364583,1.19322917 C7.54453125,3.07369792 7.15182292,4.59166667 5.87552083,5.87552083 C4.59921875,7.15182292 3.07369792,7.89192708 1.20078125,7.40104167 C0.70234375,8.30729167 0.302083333,9.27395833 0,10.2859375 C1.6765625,11.2677083 2.79427083,12.6950521 2.79427083,14.5 C2.79427083,16.3049479 1.6765625,18.0796875 0,19.0614583 C0.302083333,20.0734375 0.70234375,21.0401042 1.19322917,21.9463542 C3.07369792,21.4554687 4.59166667,21.8481771 5.86796875,23.1244792 C7.15182292,24.4007812 7.53697917,25.9263021 7.04609375,27.8067708 C7.95989583,28.2976562 8.91901042,28.6979167 9.93098958,29 C10.9127604,27.3234375 12.6875,26.2132812 14.4924479,26.2132812 C16.2973958,26.2132812 18.0721354,27.3234375 19.0539062,29 C20.0658854,28.6979167 21.0325521,28.2976562 21.9388021,27.8067708 C21.4479167,25.9263021 21.840625,24.4083333 23.1169271,23.1244792 C24.3932292,21.8481771 25.91875,21.1080729 27.7992187,21.5989583 C28.2901042,20.6851562 28.6903646,19.7184896 28.9924479,18.7140625 C27.3234375,17.7322917 26.2132812,16.3049479 26.2132812,14.5 Z M14.5,18.8108108 C12.1231338,18.8108108 10.1891892,16.8812515 10.1891892,14.5 C10.1891892,12.1187485 12.1187485,10.1891892 14.5,10.1891892 C16.8812515,10.1891892 18.8108108,12.1187485 18.8108108,14.5 C18.8108108,16.8812515 16.8812515,18.8108108 14.5,18.8108108 Z" id="Shape"></path>
                </g>
                <g id="gear-a-copy" transform="translate(47.607700, 47.215399) rotate(14.000000) translate(-47.607700, -47.215399) translate(30.607700, 30.215399)">
                    <path d="M30.7328125,17 C30.7328125,14.8838542 32.0432292,13.2104167 34,12.059375 C33.6458333,10.8817708 33.1765625,9.73958333 32.6010417,8.67708333 C30.3963542,9.25260417 28.6166667,8.39375 27.1114583,6.88854167 C25.6151042,5.3921875 25.1546875,3.60364583 25.7302083,1.39895833 C24.6677083,0.8234375 23.534375,0.354166667 22.3479167,0 C21.196875,1.965625 19.125,3.2671875 17,3.2671875 C14.8838542,3.2671875 12.803125,1.965625 11.6520833,0 C10.465625,0.354166667 9.33229167,0.8234375 8.26979167,1.39895833 C8.8453125,3.60364583 8.38489583,5.38333333 6.88854167,6.88854167 C5.3921875,8.38489583 3.60364583,9.25260417 1.4078125,8.67708333 C0.8234375,9.73958333 0.354166667,10.8729167 0,12.059375 C1.965625,13.2104167 3.27604167,14.8838542 3.27604167,17 C3.27604167,19.1161458 1.965625,21.196875 0,22.3479167 C0.354166667,23.534375 0.8234375,24.6677083 1.39895833,25.7302083 C3.60364583,25.1546875 5.38333333,25.6151042 6.8796875,27.1114583 C8.38489583,28.6078125 8.83645833,30.3963542 8.2609375,32.6010417 C9.33229167,33.1765625 10.4567708,33.6458333 11.6432292,34 C12.7942708,32.034375 14.875,30.7328125 16.9911458,30.7328125 C19.1072917,30.7328125 21.1880208,32.034375 22.3390625,34 C23.5255208,33.6458333 24.6588542,33.1765625 25.7213542,32.6010417 C25.1458333,30.3963542 25.60625,28.6166667 27.1026042,27.1114583 C28.5989583,25.6151042 30.3875,24.7473958 32.5921875,25.3229167 C33.1677083,24.2515625 33.6369792,23.1182292 33.9911458,21.940625 C32.034375,20.7895833 30.7328125,19.1161458 30.7328125,17 Z M17,22.0540541 C14.2133293,22.0540541 11.9459459,19.7918122 11.9459459,17 C11.9459459,14.2081878 14.2081878,11.9459459 17,11.9459459 C19.7918122,11.9459459 22.0540541,14.2081878 22.0540541,17 C22.0540541,19.7918122 19.7918122,22.0540541 17,22.0540541 Z" id="Shape"></path>
                </g>
                <g id="gear-a-copy-2" transform="translate(35.157641, 15.765341) rotate(32.000000) translate(-35.157641, -15.765341) translate(24.157641, 4.765341)">
                    <path d="M19.7358127,10.7527715 C19.7358127,9.42153599 20.5601761,8.36880162 21.7911512,7.64469861 C21.5683503,6.90388553 21.2731391,6.18535255 20.9110876,5.51694977 C19.5241518,5.87900127 18.4045772,5.33870903 17.4576732,4.39180509 C16.5163393,3.45047118 16.2266981,2.3253265 16.5887496,0.93839074 C15.9203468,0.576339235 15.2073839,0.281128008 14.4610008,0.0583270822 C13.7368978,1.29487222 12.4335124,2.11366562 11.0967068,2.11366562 C9.76547126,2.11366562 8.45651582,1.29487222 7.73241282,0.0583270822 C6.98602971,0.281128008 6.27306675,0.576339235 5.60466397,0.93839074 C5.96671548,2.3253265 5.67707427,3.44490116 4.73574036,4.39180509 C3.79440645,5.333139 2.66926177,5.87900127 1.28789603,5.51694977 C0.920274505,6.18535255 0.625063278,6.89831551 0.402262352,7.64469861 C1.63880749,8.36880162 2.46317092,9.42153599 2.46317092,10.7527715 C2.46317092,12.0840071 1.63880749,13.3929625 0.402262352,14.1170655 C0.625063278,14.8634486 0.920274505,15.5764116 1.28232601,16.2448144 C2.66926177,15.8827628 3.78883643,16.172404 4.73017034,17.113738 C5.67707427,18.0550719 5.96114545,19.1802165 5.59909395,20.5671523 C6.27306675,20.9292038 6.98045969,21.224415 7.72684279,21.447216 C8.4509458,20.2106708 9.75990124,19.3918774 11.0911368,19.3918774 C12.4223723,19.3918774 13.7313277,20.2106708 14.4554308,21.447216 C15.2018139,21.224415 15.9147768,20.9292038 16.5831796,20.5671523 C16.2211281,19.1802165 16.5107693,18.0606419 17.4521032,17.113738 C18.3934371,16.172404 19.5185818,15.6265418 20.9055176,15.9885933 C21.2675691,15.3146205 21.5627803,14.6016575 21.7855812,13.8608444 C20.5546061,13.1367414 19.7358127,12.0840071 19.7358127,10.7527715 Z M11.0967068,13.932201 C9.34365415,13.932201 7.91727737,12.5090586 7.91727737,10.7527715 C7.91727737,8.99648447 9.34041974,7.5733421 11.0967068,7.5733421 C12.8529939,7.5733421 14.2761362,8.99648447 14.2761362,10.7527715 C14.2761362,12.5090586 12.8529939,13.932201 11.0967068,13.932201 Z" id="Shape"></path>
                </g>
            </g>
        </g>
    </g>
</svg>